HIERARCHY
ROOT Hips
{
    OFFSET   0.000000   0.000000   0.000000
    CHANNELS 6 Xposition Yposition Zposition Zrotation Xrotation Yrotation
    JOINT Chest
    {
        OFFSET   0.000000   8.007230   0.000000
        CHANNELS 3 Zrotation Xrotation Yrotation
        JOINT Chest2
        {
            OFFSET   0.000000  22.077100   0.000000
            CHANNELS 3 Zrotation Xrotation Yrotation
            JOINT Neck
            {
                OFFSET   0.000000  23.254800   0.000000
                CHANNELS 3 Zrotation Xrotation Yrotation
                JOINT Head
                {
                    OFFSET   0.000010  14.370000   1.956600
                    CHANNELS 3 Zrotation Xrotation Yrotation
                    End Site
                    {
                        OFFSET   0.000000  19.566000   0.000000
                    }
                }
            }
            JOINT LeftCollar
            {
                OFFSET   3.911900  19.017000  -0.467062
                CHANNELS 3 Zrotation Xrotation Yrotation
                JOINT LeftShoulder
                {
                    OFFSET  10.383700   0.000000   0.000000
                    CHANNELS 3 Zrotation Xrotation Yrotation
                    JOINT LeftElbow
                    {
                        OFFSET  26.662100   0.001193   0.000835
                        CHANNELS 3 Zrotation Xrotation Yrotation
                        JOINT LeftWrist
                        {
                            OFFSET  28.869000  -0.000058  -0.000075
                            CHANNELS 3 Zrotation Xrotation Yrotation
                            JOINT LeftFinger0
                            {
                                OFFSET   2.044660  -2.323460   3.252850
                                CHANNELS 3 Zrotation Xrotation Yrotation
                                JOINT LeftFinger01
                                {
                                    OFFSET   3.088130   0.000000   0.000000
                                    CHANNELS 3 Zrotation Xrotation Yrotation
                                    JOINT LeftFinger02
                                    {
                                        OFFSET   2.639450   0.000000   0.000000
                                        CHANNELS 3 Zrotation Xrotation Yrotation
                                        End Site
                                        {
                                            OFFSET   2.582190   0.000000   0.000000
                                        }
                                    }
                                }
                            }
                            JOINT LeftFinger1
                            {
                                OFFSET   8.364480   0.000000   3.252850
                                CHANNELS 3 Zrotation Xrotation Yrotation
                                JOINT LeftFinger11
                                {
                                    OFFSET   4.646920   0.000000   0.000000
                                    CHANNELS 3 Zrotation Xrotation Yrotation
                                    JOINT LeftFinger12
                                    {
                                        OFFSET   2.323460   0.000000   0.000000
                                        CHANNELS 3 Zrotation Xrotation Yrotation
                                        End Site
                                        {
                                            OFFSET   2.273050   0.000000   0.000000
                                        }
                                    }
                                }
                            }
                            JOINT LeftFinger2
                            {
                                OFFSET   8.364490   0.000016   1.078090
                                CHANNELS 3 Zrotation Xrotation Yrotation
                                JOINT LeftFinger21
                                {
                                    OFFSET   5.111620   0.000000   0.000000
                                    CHANNELS 3 Zrotation Xrotation Yrotation
                                    JOINT LeftFinger22
                                    {
                                        OFFSET   2.788150   0.000012   0.000000
                                        CHANNELS 3 Zrotation Xrotation Yrotation
                                        End Site
                                        {
                                            OFFSET   2.727660   0.000000   0.000000
                                        }
                                    }
                                }
                            }
                            JOINT LeftFinger3
                            {
                                OFFSET   7.899780   0.000014  -1.078090
                                CHANNELS 3 Zrotation Xrotation Yrotation
                                JOINT LeftFinger31
                                {
                                    OFFSET   4.646930   0.000000   0.000000
                                    CHANNELS 3 Zrotation Xrotation Yrotation
                                    JOINT LeftFinger32
                                    {
                                        OFFSET   2.323470   0.000000   0.000000
                                        CHANNELS 3 Zrotation Xrotation Yrotation
                                        End Site
                                        {
                                            OFFSET   2.273050   0.000000   0.000000
                                        }
                                    }
                                }
                            }
                            JOINT LeftFinger4
                            {
                                OFFSET   7.435090   0.000000  -3.252850
                                CHANNELS 3 Zrotation Xrotation Yrotation
                                JOINT LeftFinger41
                                {
                                    OFFSET   3.717550   0.000000   0.000000
                                    CHANNELS 3 Zrotation Xrotation Yrotation
                                    JOINT LeftFinger42
                                    {
                                        OFFSET   1.858770   0.000000   0.000000
                                        CHANNELS 3 Zrotation Xrotation Yrotation
                                        End Site
                                        {
                                            OFFSET   1.818440   0.000000   0.000000
                                        }
                                    }
                                }
                            }
                        }
                    }
                }
            }
            JOINT RightCollar
            {
                OFFSET  -3.911900  19.017000  -0.467063
                CHANNELS 3 Zrotation Xrotation Yrotation
                JOINT RightShoulder
                {
                    OFFSET -10.383700   0.000023   0.000000
                    CHANNELS 3 Zrotation Xrotation Yrotation
                    JOINT RightElbow
                    {
                        OFFSET -26.662100   0.001246   0.001011
                        CHANNELS 3 Zrotation Xrotation Yrotation
                        JOINT RightWrist
                        {
                            OFFSET -28.869000  -0.000026  -0.000078
                            CHANNELS 3 Zrotation Xrotation Yrotation
                            JOINT RightFinger0
                            {
                                OFFSET  -2.044660  -2.323490   3.252850
                                CHANNELS 3 Zrotation Xrotation Yrotation
                                JOINT RightFinger01
                                {
                                    OFFSET  -3.088130   0.000000   0.000000
                                    CHANNELS 3 Zrotation Xrotation Yrotation
                                    JOINT RightFinger02
                                    {
                                        OFFSET  -2.639460   0.000000   0.000000
                                        CHANNELS 3 Zrotation Xrotation Yrotation
                                        End Site
                                        {
                                            OFFSET  -2.582190   0.000000   0.000000
                                        }
                                    }
                                }
                            }
                            JOINT RightFinger1
                            {
                                OFFSET  -8.364480   0.000000   3.252850
                                CHANNELS 3 Zrotation Xrotation Yrotation
                                JOINT RightFinger11
                                {
                                    OFFSET  -4.646920   0.000000   0.000000
                                    CHANNELS 3 Zrotation Xrotation Yrotation
                                    JOINT RightFinger12
                                    {
                                        OFFSET  -2.323470   0.000000   0.000000
                                        CHANNELS 3 Zrotation Xrotation Yrotation
                                        End Site
                                        {
                                            OFFSET  -2.273050   0.000000   0.000000
                                        }
                                    }
                                }
                            }
                            JOINT RightFinger2
                            {
                                OFFSET  -8.364480   0.000000   1.078090
                                CHANNELS 3 Zrotation Xrotation Yrotation
                                JOINT RightFinger21
                                {
                                    OFFSET  -5.111620   0.000000   0.000000
                                    CHANNELS 3 Zrotation Xrotation Yrotation
                                    JOINT RightFinger22
                                    {
                                        OFFSET  -2.788160   0.000000   0.000000
                                        CHANNELS 3 Zrotation Xrotation Yrotation
                                        End Site
                                        {
                                            OFFSET  -2.727660   0.000000   0.000000
                                        }
                                    }
                                }
                            }
                            JOINT RightFinger3
                            {
                                OFFSET  -7.899780   0.000000  -1.078090
                                CHANNELS 3 Zrotation Xrotation Yrotation
                                JOINT RightFinger31
                                {
                                    OFFSET  -4.646930   0.000000   0.000000
                                    CHANNELS 3 Zrotation Xrotation Yrotation
                                    JOINT RightFinger32
                                    {
                                        OFFSET  -2.323470   0.000000   0.000000
                                        CHANNELS 3 Zrotation Xrotation Yrotation
                                        End Site
                                        {
                                            OFFSET  -2.273050   0.000000   0.000000
                                        }
                                    }
                                }
                            }
                            JOINT RightFinger4
                            {
                                OFFSET  -7.435090   0.000000  -3.252850
                                CHANNELS 3 Zrotation Xrotation Yrotation
                                JOINT RightFinger41
                                {
                                    OFFSET  -3.717550   0.000000   0.000000
                                    CHANNELS 3 Zrotation Xrotation Yrotation
                                    JOINT RightFinger42
                                    {
                                        OFFSET  -1.858760   0.000000   0.000000
                                        CHANNELS 3 Zrotation Xrotation Yrotation
                                        End Site
                                        {
                                            OFFSET  -1.818440   0.000000   0.000000
                                        }
                                    }
                                }
                            }
                        }
                    }
                }
            }
        }
    }
    JOINT LeftHip
    {
        OFFSET   9.783010   0.000000   0.000000
        CHANNELS 3 Zrotation Xrotation Yrotation
        JOINT LeftKnee
        {
            OFFSET   0.000073 -41.789100   0.001749
            CHANNELS 3 Zrotation Xrotation Yrotation
            JOINT LeftAnkle
            {
                OFFSET   0.000111 -41.133200  -0.000179
                CHANNELS 3 Zrotation Xrotation Yrotation
                JOINT LeftToe
                {
                    OFFSET   0.000000  -6.358960  14.674500
                    CHANNELS 3 Zrotation Xrotation Yrotation
                    End Site
                    {
                        OFFSET   0.000000   0.000000   3.913200
                    }
                }
            }
        }
    }
    JOINT RightHip
    {
        OFFSET  -9.783010   0.000000   0.000000
        CHANNELS 3 Zrotation Xrotation Yrotation
        JOINT RightKnee
        {
            OFFSET   0.000424 -41.789200   0.005205
            CHANNELS 3 Zrotation Xrotation Yrotation
            JOINT RightAnkle
            {
                OFFSET   0.000000 -41.133200  -0.000155
                CHANNELS 3 Zrotation Xrotation Yrotation
                JOINT RightToe
                {
                    OFFSET   0.000000  -6.358960  14.674500
                    CHANNELS 3 Zrotation Xrotation Yrotation
                    End Site
                    {
                        OFFSET   0.000000   0.000000   3.913200
                    }
                }
            }
        }
    }
}
MOTION
Frames: 4
Frame Time:   0.016667
  0.350600  89.493000  -0.548970  -0.013882 -17.990500   8.052540  -0.749930  10.182900   3.065000  -2.117030  20.308500   6.422730  -1.313250   1.886070   0.041303  -2.163250   3.818340   8.903890  -4.957640  -2.699650  -0.553102 -68.774400  18.326600  -8.759960  -0.356082  -7.284970 -17.320100  11.220800  -2.072570   3.073970  36.040600  26.872500 -51.031600 -33.950900  -0.000875   0.001646 -11.975500  -0.001202  -0.001207 -28.857600   4.968890  -8.929030 -23.928300  -0.009962  -0.002407 -16.749800  -0.006778  -0.000386 -28.114700  -1.648910   3.082680 -33.100000   0.008396   0.004533 -22.044600   0.005235   0.003622 -27.963100  -1.640770   3.087040 -32.047900  -0.000369   0.004439 -21.343900   0.002218   0.008596 -30.725100  -1.787390   3.004450 -46.158100   0.004581   0.006050 -30.741200  -0.002050  -0.000783   3.703090  -5.897810   6.148220  30.479700   1.757050  17.754200 -28.225000 -29.230700  87.672800  70.666200 -44.769400  63.525000 -45.888900  49.885900  91.169600  41.252200  -0.000883  -0.000698  15.734700  -0.003019  -0.000476 -15.144200  -8.745420  29.393700   0.000001  -0.006003   0.006609   0.000000  -0.004209   0.004921   4.386450  -0.379388  -5.077000   4.404550   0.006611  -0.000133   2.933430   0.004712  -0.004271  81.560500  -4.947800  -0.732017  81.592200  -0.001530  -0.001624  61.194100  -0.001702   0.010797  84.357800  -9.952390  -0.978096 110.000000  -0.003685  -0.001821  80.000000  -0.003112   0.004003   2.515690  18.994900   4.285510   1.072140  -0.014238  -3.314680  -2.497300  -1.412430  -2.335660  -0.000000   0.000000   0.000000   2.919120  19.480700  -1.643680  -0.727706   3.985910 -12.412200   0.261805  -6.123920  -1.372900   0.000000   0.000000   0.000000
  0.391224  89.490200  -0.530741   0.189730 -17.849800   8.641370  -0.745846  10.125100   2.972740  -2.083830  20.195300   6.230730  -1.426460   1.755780   0.040647  -2.349140   3.553680   9.124810  -4.972020  -2.671390  -0.415003 -68.869300  18.016600  -8.674250  -0.309281  -7.207150 -17.141100  11.213600  -1.992920   3.125110  35.985900  26.859000 -51.134200 -34.026400  -0.001013   0.001795 -12.013200  -0.001268  -0.001180 -28.875900   4.981800  -8.947930 -23.945100  -0.009975  -0.002449 -16.761600  -0.006784  -0.000326 -28.117800  -1.645420   3.076050 -33.122100   0.008482   0.004567 -22.059300   0.005290   0.003639 -27.968500  -1.637380   3.080360 -32.082100  -0.000337   0.004451 -21.366700   0.002255   0.008840 -30.693700  -1.782050   2.998990 -46.110800   0.004724   0.006166 -30.709800  -0.002084  -0.000951   3.638880  -5.715880   6.244450  30.701000   0.949845  17.243800 -27.499400 -29.385500  88.695600  71.070100 -44.218800  63.448400 -45.781200  49.825300  91.027700  41.332700  -0.000986  -0.000604  15.809200  -0.002947  -0.000424 -15.605900  -9.154980  29.907500   0.000001  -0.005459   0.006815   0.000000  -0.003829   0.005073   4.410090  -0.365192  -5.056400   4.427210   0.007114  -0.000093   2.948520   0.004902  -0.004298  81.735000  -4.948430  -0.716793  81.766000  -0.001538  -0.001610  61.324500  -0.001686   0.010868  84.473400  -9.953670  -0.958306 110.000000  -0.003747  -0.001854  80.000000  -0.003030   0.003846   2.494070  18.819300   4.225730   1.042580  -0.024612  -3.622910  -2.541910  -1.360030  -2.516720   0.000000   0.000000   0.000000   2.890240  19.378700  -1.654200  -0.712006   4.048690 -12.776900   0.257680  -6.226310  -1.580100   0.000000   0.000000   0.000000
  0.412078  89.487200  -0.515681   0.277232 -17.763600   8.980330  -0.730413  10.095700   2.902620  -2.025800  20.139000   6.082450  -1.469750   1.632300   0.040247  -2.427120   3.303550   9.443690  -4.974500  -2.689540  -0.338775 -68.968800  17.656100  -8.519430  -0.301103  -7.093670 -16.956700  11.213900  -2.021410   3.198270  35.896200  26.771500 -51.207900 -34.122800   0.005332   0.002649 -12.061400   0.004766  -0.001170 -28.936000   4.967040  -8.905470 -23.991800  -0.009975  -0.002496 -16.794200  -0.006779  -0.000265 -28.126000  -1.667750   3.116540 -33.192400   0.008549   0.004590 -22.106100   0.005337   0.003642 -27.981100  -1.659860   3.120770 -32.172900  -0.000320   0.004447 -21.427100   0.002288   0.009088 -30.705200  -1.806360   3.038330 -46.129700   0.004865   0.006279 -30.722500  -0.002120  -0.001106   3.556710  -5.605540   6.354960  30.560800   0.575849  17.659600 -26.777200 -29.331200  89.050100  71.185200 -44.029600  63.066200 -45.786800  49.861400  91.033500  41.419000  -0.001079  -0.000509  15.889100  -0.002877  -0.000368 -14.353500  -8.334610  29.769700   0.000001  -0.005179   0.007024  -0.004908  -0.003634   0.005225   4.341850  -0.261869  -4.049170   4.350030   0.007591  -0.000036   2.897130   0.005082  -0.004345  82.049900  -4.953180  -0.689422  82.079700  -0.001547  -0.001596  61.559800  -0.001673   0.010937  84.455100  -9.953560  -0.961519 110.000000  -0.003808  -0.001885  80.000000  -0.002937   0.003686   2.502590  18.677600   4.277470   1.049730   0.047764  -3.934370  -2.563880  -1.387670  -2.616130  -0.000000   0.000000  -0.000000   2.925730  19.280100  -1.619880  -0.729857   4.146840 -13.043300   0.247158  -6.310280  -1.729440   0.000000   0.000000   0.000000
  0.417512  89.485400  -0.508605   0.283212 -17.732100   9.093190  -0.712855  10.086800   2.869120  -1.994410  20.122900   6.010570  -1.476020   1.509110   0.038929  -2.429820   3.054390   9.790560  -4.983780  -2.764880  -0.312047 -69.061000  17.345200  -8.344640  -0.339863  -7.022270 -16.737900  11.207100  -2.087010   3.287400  35.794800  26.675000 -51.299600 -34.219400   0.011677   0.008026 -12.109700   0.010801  -0.001144 -28.984400   4.937880  -8.832270 -24.026800  -0.009975  -0.002549 -16.818700  -0.006763  -0.000203 -28.134700  -1.690080   3.157040 -33.266100   0.008579   0.004598 -22.155200   0.005360   0.003642 -27.994700  -1.682350   3.161180 -32.271300  -0.000267   0.004429 -21.492700   0.002320   0.009337 -30.716700  -1.830670   3.077670 -46.148700   0.005003   0.006394 -30.735100  -0.002153  -0.001248   3.470770  -5.559490   6.491550  30.189800   0.494641  18.773800 -26.644200 -29.144600  89.107100  71.219700 -43.871800  62.645500 -45.794700  49.977800  91.042300  41.622700  -0.001170  -0.000416  16.080600  -0.002808  -0.000312 -11.551400  -6.549430  29.181500   0.000001  -0.004314   0.007229  -0.012283  -0.003035   0.005379   4.094590  -0.098762  -1.840450   4.093550   0.007842   0.000000   2.726310   0.005176  -0.004379  82.397700  -4.958410  -0.659480  82.426300  -0.001556  -0.001579  61.819700  -0.001658   0.011005  84.326800  -9.952720  -0.984012 110.000000  -0.003868  -0.001914  80.000000  -0.002843   0.003527   2.515030  18.609700   4.398730   1.071210   0.120105  -4.103690  -2.569990  -1.439760  -2.647560   0.000000   0.000000   0.000000   3.001950  19.189900  -1.551970  -0.768389   4.274210 -13.163000   0.241979  -6.377910  -1.790880   0.000000   0.000000  -0.000000
